<svg width="16" height="18" viewBox="0 0 16 18" fill="none" xmlns="http://www.w3.org/2000/svg">
<path d="M14.2194 8.90411L8.00033 15.0905L1.78338 8.90411C1.37668 8.44658 0.714705 8.44658 0.308011 8.90411C-0.0986828 9.36164 -0.0986828 10.1064 0.308011 10.5616L7.24917 17.4693C7.45666 17.7051 7.72853 17.8148 8.00033 17.8101C8.2722 17.8171 8.544 17.7074 8.7515 17.4763L15.6947 10.5686C16.0994 10.1111 16.0994 9.36399 15.6947 8.90881C15.286 8.44893 14.624 8.44658 14.2194 8.90411Z" fill="#D5DEE4"/>
<path d="M7.24617 9.10023C7.45367 9.33366 7.72554 9.44575 7.99734 9.44105C8.26921 9.44575 8.5431 9.33366 8.74851 9.10023L15.6897 2.19254C16.1027 1.73501 16.1027 0.992632 15.6939 0.532751C15.2872 0.0752202 14.6231 0.0752202 14.2185 0.532751L7.9995 6.71915L1.78248 0.532678C1.37369 0.0751467 0.711715 0.0751467 0.30502 0.532678C-0.101673 0.990208 -0.101673 1.73494 0.30502 2.19247L7.24617 9.10023Z" fill="#D5DEE4"/>
</svg>
